<svg xmlns="http://www.w3.org/2000/svg" width="18.925" height="23.452" viewBox="0 0 18.925 23.452"><g transform="translate(1 1)"><path d="M1082.156,582.088v13.143a2.278,2.278,0,0,0,2.1,2.425h9.851a2.279,2.279,0,0,0,2.1-2.425V582.088" transform="translate(-1080.777 -576.21)" fill="none" stroke="#fe4154" stroke-linecap="round" stroke-miterlimit="10" stroke-width="2"/><path d="M1094.925,567.606a1.536,1.536,0,0,0-1.412-1.635h-4.231a1.529,1.529,0,0,0-1.411-1.6H1084.8a1.529,1.529,0,0,0-1.411,1.6h-3.98a1.536,1.536,0,0,0-1.412,1.635" transform="translate(-1078 -564.375)" fill="none" stroke="#fe4154" stroke-linecap="round" stroke-miterlimit="10" stroke-width="2"/><line y1="12.438" transform="translate(8.4 9.009)" fill="none" stroke="#fe4154" stroke-linecap="round" stroke-miterlimit="10" stroke-width="2"/><line y1="12.438" x2="0.065" transform="translate(4.864 9.009)" fill="none" stroke="#fe4154" stroke-linecap="round" stroke-miterlimit="10" stroke-width="2"/><line y1="12.438" x2="0.065" transform="translate(11.745 9.009)" fill="none" stroke="#fe4154" stroke-linecap="round" stroke-miterlimit="10" stroke-width="2"/></g></svg>