<svg id="Calque_1" data-name="Calque 1" xmlns="http://www.w3.org/2000/svg" viewBox="0 0 989.63 183.5"><defs><style>.cls-1{fill:#353535;}</style></defs><path class="cls-1" d="M29.18,98.58H80a49.55,49.55,0,0,1,5.69.24A13.33,13.33,0,0,1,90,100.39q4.45,2.31,4.45,12.86,0,11.53-6.1,13.51a27.52,27.52,0,0,1-8.57,1H14.51Q3,127.75,1,121.49q-1-2.64-1-8.41V21.43Q0,13,3.13,10T15,6.92H80a49.06,49.06,0,0,1,5.69.25A13.33,13.33,0,0,1,90,8.74Q94.46,11,94.45,21.59q0,11.55-6.1,13.52a27.52,27.52,0,0,1-8.57,1H29.18V52.75H61.82A46.58,46.58,0,0,1,67.5,53a13.33,13.33,0,0,1,4.37,1.56q4.45,2.31,4.45,12.86,0,11.53-6.26,13.52a27.56,27.56,0,0,1-8.57,1H29.18Z"/><path class="cls-1" d="M360.2,14.51a48.81,48.81,0,0,1,.25-5.69,15.47,15.47,0,0,1,1.4-4.37Q364.16,0,374.71,0q10.05,0,12.53,4.45A13,13,0,0,1,388.8,8.9a48.86,48.86,0,0,1,.25,5.77V91q0,5.94,1,7.5c.66,1.05,2.11,1.57,4.37,1.57a25.75,25.75,0,0,1,4.53.25,8.13,8.13,0,0,1,2.8,1.4q3.3,2.15,3.3,11.7c0,6.92-1.1,11.16-3.3,12.69q-4.29,3-20.44,1-12.69-1.64-16.48-8.4Q360.2,110.6,360.2,93Z"/><path class="cls-1" d="M572.18,41.87a11.21,11.21,0,0,1,5.2,3.38c1.37,1.59,2.06,4.15,2.06,7.66a26.15,26.15,0,0,1-3.13,11.54q-3.13,6.27-9.07,6.27a12.87,12.87,0,0,1-5.69-1.32,16.51,16.51,0,0,0-7.17-1.32,13,13,0,0,0-8.32,3.13,9.44,9.44,0,0,0-3.88,7.58v34.62a49.31,49.31,0,0,1-.24,5.69,13.37,13.37,0,0,1-1.57,4.37q-2.48,4.29-12.86,4.28-7.9,0-11.37-2.8-2.64-2.31-3-7.09V55.22a46.58,46.58,0,0,1,.25-5.68,13.31,13.31,0,0,1,1.4-4.21q2.31-4.45,12.86-4.45,9.89,0,12.36,3.79a9.47,9.47,0,0,1,1.81,5.44,28.16,28.16,0,0,1,2.39-2.8,30.7,30.7,0,0,1,6.68-4.45,19.21,19.21,0,0,1,9-2.8,43.87,43.87,0,0,1,6.51.41A38.67,38.67,0,0,1,572.18,41.87Z"/><path class="cls-1" d="M667.3,73.93q0,10.14-5,15a15.67,15.67,0,0,1-11.13,4.87H612.07c0,3.07,1.82,5.66,5.44,7.74a21.65,21.65,0,0,0,10.88,3.13q9.57,0,15-2l1.82-.66a16.58,16.58,0,0,1,6.59-1.82q5.28,0,9.07,7.42a18.34,18.34,0,0,1,2.14,7.58q0,14.69-35.11,14.68a53,53,0,0,1-21.68-4.21,36.7,36.7,0,0,1-14.75-11.13,47.34,47.34,0,0,1-10.39-29.83q0-20.78,13.44-33.22t33.54-12.44q22.92,0,33.63,16.15A33.5,33.5,0,0,1,667.3,73.93Zm-34.79,4.86c4.18,0,6.27-1.75,6.27-5.27a7.44,7.44,0,0,0-2.89-6.1q-2.88-2.31-8.24-2.31T617,69.48q-5.28,4.36-5.28,9.31Z"/><path class="cls-1" d="M172.49,91.55l-20.14,20.14h0l13.8,13.79a10.54,10.54,0,0,0,14.93,0l5.21-5.21a10.55,10.55,0,0,0,0-14.92Z"/><path class="cls-1" d="M172.49,77.4,152.35,57.27h0l13.8-13.8a10.54,10.54,0,0,1,14.93,0l5.21,5.21a10.56,10.56,0,0,1,0,14.93Z"/><path class="cls-1" d="M198.62,151.32V55.06a47.15,47.15,0,0,1,.24-5.61,13.65,13.65,0,0,1,1.4-4.12q2.31-4.45,11.05-4.45t11.78,2.23a8.87,8.87,0,0,1,3.55,6.51q6.26-8.58,19.7-8.57T271.8,53.74q12,12.69,12,29.51t-11.95,29.5q-12,12.7-25.47,12.69t-19.62-7.58v33.3a47,47,0,0,1-.24,5.6,13.47,13.47,0,0,1-1.49,4.21,6.93,6.93,0,0,1-4.2,3.38,26.4,26.4,0,0,1-8.08,1,27.2,27.2,0,0,1-8.16-1,7,7,0,0,1-4.28-3.3,12.58,12.58,0,0,1-1.49-4.12A47.15,47.15,0,0,1,198.62,151.32Zm32.63-77.64a14.68,14.68,0,0,0-3.79,9.73,14.17,14.17,0,0,0,3.88,9.64,12.59,12.59,0,0,0,9.89,4.37,13.81,13.81,0,0,0,10.22-4.28,13.55,13.55,0,0,0,4.2-9.73,14.25,14.25,0,0,0-4-9.81,13.24,13.24,0,0,0-10.3-4.37A12.67,12.67,0,0,0,231.25,73.68Z"/><path class="cls-1" d="M329.26,72.52c.14,1.37.21,3,.21,5,0,2.27-.09,3.89-.2,5H314.69c-.12-1.41-.18-3.15-.18-5.18,0-2.22.09-3.78.2-4.86h14.55m2.39-8H312.41A5.18,5.18,0,0,0,308.53,66,8,8,0,0,0,307,70a45.78,45.78,0,0,0-.48,7.42,58,58,0,0,0,.4,7.58c.59,3.74,2.4,5.6,5.42,5.6h19.24a5.4,5.4,0,0,0,4-1.48A8.44,8.44,0,0,0,337,85a52,52,0,0,0,.44-7.5A49.05,49.05,0,0,0,337,70q-.81-5.44-5.34-5.44Z"/><path class="cls-1" d="M457.13,46.9c9.85,0,18.37,3.48,26,10.63,7.5,7,11.15,15.73,11.15,26.7a34.66,34.66,0,0,1-5.75,19.88A36.23,36.23,0,0,1,474.43,117a38.54,38.54,0,0,1-17.47,4.2,36.69,36.69,0,0,1-17.38-4.45,38.4,38.4,0,0,1-14.29-13.19,33.37,33.37,0,0,1-5.66-19.2c0-11,3.7-19.72,11.29-26.78,7.77-7.21,16.34-10.72,26.21-10.72m0-8q-17.81,0-31.65,12.86T411.63,84.4a41.54,41.54,0,0,0,7,23.65,46.79,46.79,0,0,0,17.22,15.83,45,45,0,0,0,21.1,5.36,46.77,46.77,0,0,0,21-5,44.45,44.45,0,0,0,17.23-15.66,42.87,42.87,0,0,0,7.09-24.32q0-19.77-13.69-32.55T457.13,38.9Z"/><path class="cls-1" d="M446.51,146.34a60.93,60.93,0,0,0,10.45.9,63.55,63.55,0,0,0,10.43-.86L457,166.27l-10.45-19.93M430,132l27,51.47,26.77-51c-.44.24-.86.49-1.3.71A57,57,0,0,1,457,139.24a55,55,0,0,1-25.73-6.5c-.43-.23-.84-.48-1.26-.71Z"/><path class="cls-1" d="M117,48.37a2.57,2.57,0,0,1,1.81.75L139.63,70l14.48,14.49L139.63,99l-20.87,20.87a2.56,2.56,0,0,1-3.62,0l-5.21-5.21a2.56,2.56,0,0,1,0-3.62L130.8,90.13l5.66-5.65-5.66-5.66L109.93,58a2.55,2.55,0,0,1-.75-1.81,2.58,2.58,0,0,1,.75-1.81l5.21-5.21a2.55,2.55,0,0,1,1.81-.75m0-8a10.53,10.53,0,0,0-7.46,3.1l-5.22,5.21a10.56,10.56,0,0,0,0,14.93l20.87,20.87-20.87,20.87a10.55,10.55,0,0,0,0,14.92l5.22,5.21a10.53,10.53,0,0,0,14.92,0l20.87-20.87,20.14-20.13L145.28,64.34,124.41,43.47a10.53,10.53,0,0,0-7.46-3.1Z"/><circle class="cls-1" cx="456.85" cy="84.07" r="16.15"/><path class="cls-1" d="M696.17,169.53a30.77,30.77,0,0,1-9.4-1.18,10.91,10.91,0,0,1-6.57-5.21,16.28,16.28,0,0,1-1.92-5.47,48.7,48.7,0,0,1-.29-6.15V55.26a48.7,48.7,0,0,1,.29-6.15,17.23,17.23,0,0,1,1.78-5.37c2.3-4.44,7.21-6.66,14.63-6.66,6.84,0,11.34,1,14.14,3a12.38,12.38,0,0,1,2.62,2.59c4.68-3.6,10.8-5.42,18.26-5.42,10.06,0,19.6,4.69,28.37,13.94s13.14,20.05,13.14,32.26-4.39,23.06-13,32.25-18.27,13.95-28.38,13.95c-6.16,0-11.38-1.1-15.62-3.29v25a49,49,0,0,1-.28,6.14A17,17,0,0,1,712,163a11,11,0,0,1-6.49,5.34A30.05,30.05,0,0,1,696.17,169.53ZM694.69,45.08c-2.36,0-6.46.3-7.5,2.29a9.45,9.45,0,0,0-1,2.82,42.48,42.48,0,0,0-.21,5.07v96.26a42.48,42.48,0,0,0,.21,5.07,8.7,8.7,0,0,0,1,2.77c.12.22.48.89,2,1.38a23.59,23.59,0,0,0,6.93.79,22.2,22.2,0,0,0,6.81-.78,3,3,0,0,0,1.92-1.42,9.34,9.34,0,0,0,1.07-2.91,39.92,39.92,0,0,0,.21-5.06V106.7l7.12,8.85c3.29,4.1,8.69,6.09,16.5,6.09s15.31-3.74,22.55-11.43,10.87-16.52,10.87-26.77-3.58-19-10.94-26.75S737.6,45.24,729.71,45.24c-7.67,0-13.06,2.27-16.47,6.94l-6,8.25L706,50.27a4.84,4.84,0,0,0-1.93-3.73C703.65,46.19,701.58,45.08,694.69,45.08Zm29.91,56.54a16.49,16.49,0,0,1-12.88-5.72,18.11,18.11,0,0,1-4.88-12.29,18.63,18.63,0,0,1,4.75-12.32,16.51,16.51,0,0,1,13.18-5.86A17.18,17.18,0,0,1,738,71.11a18.22,18.22,0,0,1,5,12.5,17.47,17.47,0,0,1-5.35,12.53A17.74,17.74,0,0,1,724.6,101.62Zm.17-28.19a8.62,8.62,0,0,0-7.09,3h0a10.71,10.71,0,0,0-2.84,7.13,10.3,10.3,0,0,0,2.86,7,8.64,8.64,0,0,0,6.9,3A9.85,9.85,0,0,0,732,90.53,9.59,9.59,0,0,0,735,83.61a10.35,10.35,0,0,0-2.92-7.13A9.24,9.24,0,0,0,724.77,73.43Z"/><path class="cls-1" d="M809.17,133.43a60.79,60.79,0,0,1-32.71-9.84h0c-2.28-1.44-5-4.29-5-9.65,0-3.79,2.21-8.65,7-15.29,1.38-2.09,4.09-4.54,9.15-4.54.43,0,.87,0,1.32.07-.51-.29-1-.59-1.51-.9a26,26,0,0,1-9.41-11,37.69,37.69,0,0,1-3.55-16.85c0-13.71,6.9-30.05,39.77-30.05a62.42,62.42,0,0,1,25.72,6c6.71,3.07,8.12,7.26,8.12,10.24,0,3.43-1.39,7.31-4.24,11.85C840.6,68.55,837,71.12,833,71.12c-1.33,0-3.55-.32-9-2.84a23.61,23.61,0,0,0-9.94-2.1,25,25,0,0,0-4.74.35,21,21,0,0,0,6.7,1.73,65.61,65.61,0,0,1,22.41,6.66,22.64,22.64,0,0,1,9.69,9.6c2.47,4.39,3.73,9.85,3.73,16.23a34.63,34.63,0,0,1-3.69,16.48,24.84,24.84,0,0,1-10.68,10.65C829.82,131.58,820.33,133.43,809.17,133.43Zm-28.45-16.61a52.86,52.86,0,0,0,28.45,8.61c9.94,0,18.26-1.58,24.71-4.71a16.77,16.77,0,0,0,7.2-7.26,26.85,26.85,0,0,0,2.74-12.71c0-5-.91-9.12-2.7-12.29a14.64,14.64,0,0,0-6.25-6.36,57.84,57.84,0,0,0-19.78-5.89H815c-9.75-1.29-14.69-4.79-14.69-10.39,0-5.07,4.62-7.63,13.73-7.63A31.44,31.44,0,0,1,827.33,61c4.28,2,5.55,2.1,5.68,2.1.74,0,2.2-1,4-3.89,2.49-4,3-6.32,3-7.6s-2.63-2.59-3.43-3a54.56,54.56,0,0,0-22.41-5.24c-28.47,0-31.77,12.58-31.77,22.05a30,30,0,0,0,2.72,13.31,18.21,18.21,0,0,0,6.44,7.68,50.13,50.13,0,0,0,19.06,7.19c4.67.63,14.48,2,14.48,8.58,0,5.28-4.73,8-14.06,8-4.44,0-9.33-1.54-14.54-4.58s-7.84-3.5-8.95-3.5c-1.86,0-2.29.66-2.49,1l-.11.16c-5.12,7.13-5.51,10-5.51,10.69C779.46,115.77,780.06,116.4,780.72,116.82ZM804,100.48a17.76,17.76,0,0,0,7,1.71c.72,0,1.36,0,1.93,0-1-.19-2.09-.38-3.45-.57A51,51,0,0,1,804,100.48Z"/><path class="cls-1" d="M971.12,132c-8.65,0-14-2.23-16.27-6.83l0-.09a18.73,18.73,0,0,1-1.75-5.55,50.58,50.58,0,0,1-.28-6.2V84.43c0-10.34-4.2-10.34-6.22-10.34-3.39,0-4.06,1.24-4.32,1.7-1,1.9-1.57,4.94-1.57,8.81v28.84a51,51,0,0,1-.28,6.32,17.31,17.31,0,0,1-2,5.62C936.1,129.79,930.73,132,922,132s-14-2.23-16.27-6.83l-.05-.09a19,19,0,0,1-1.74-5.55,50.58,50.58,0,0,1-.28-6.2V84.43c0-10.34-4.2-10.34-6.22-10.34s-5.89,0-5.89,10.34v29.18a50.88,50.88,0,0,1-.28,6.21,17,17,0,0,1-2,5.72l-.06.12c-2.44,4.23-7.78,6.29-16.32,6.29s-13.94-2.16-16.25-6.61l-.07-.15a19,19,0,0,1-1.74-5.44,50.41,50.41,0,0,1-.29-6.31v-58a52.94,52.94,0,0,1,.28-6.2,15.64,15.64,0,0,1,2.07-5.68c2.37-4.27,7.48-6.46,15.17-6.46,7.47,0,12.22,1.34,14.94,4.22a12.7,12.7,0,0,1,1.91,2.61,23.36,23.36,0,0,1,16.62-7c10.7,0,19.21,3.92,25.35,11.66L932,47.32a39.55,39.55,0,0,1,9.09-6.66,26.9,26.9,0,0,1,13.53-3.75,32.18,32.18,0,0,1,25.09,11.5c6.66,7.59,9.9,19.42,9.9,36.19v28.84a50.66,50.66,0,0,1-.28,6.21,16.87,16.87,0,0,1-2,5.67C985.18,129.78,979.86,132,971.12,132ZM962,121.58c.33.6,1.89,2.37,9.1,2.37,5.93,0,8.6-1.18,9.09-2.19l.07-.14a9.22,9.22,0,0,0,1.13-3,41.66,41.66,0,0,0,.22-5.17V84.6c0-14.54-2.66-24.93-7.91-30.91a24.21,24.21,0,0,0-19.08-8.78,18.78,18.78,0,0,0-9.55,2.69,32.3,32.3,0,0,0-7.24,5.2,54,54,0,0,0-4.05,4.82l-3.63,5-3.07-5.33c-4.77-8.3-11.83-12.34-21.58-12.34-5.88,0-10.88,3.25-15.3,9.92l-7.33,11.08V52.62c0-2.67-.58-4.63-1.71-5.83-.27-.28-2-1.71-9.13-1.71-4.37,0-7.36.87-8.2,2.39a7.58,7.58,0,0,0-1.1,2.78,42.06,42.06,0,0,0-.22,5.17v58a41.18,41.18,0,0,0,.22,5.24,11.26,11.26,0,0,0,1,3c.63,1.09,3.34,2.24,9.12,2.24s8.68-1.15,9.36-2.24a8.92,8.92,0,0,0,1.09-2.93,41.92,41.92,0,0,0,.22-5.17V84.43c0-16,8.7-18.34,13.89-18.34s14.22,2.38,14.22,18.34v28.85a42.84,42.84,0,0,0,.21,5.17,11.42,11.42,0,0,0,1,3.13c.32.6,1.89,2.37,9.1,2.37,6,0,8.73-1.18,9.31-2.29a9.81,9.81,0,0,0,1.15-3,41.77,41.77,0,0,0,.21-5.23V84.6c0-5.35.83-9.48,2.55-12.63,1.45-2.68,4.61-5.88,11.34-5.88,5.31,0,14.22,2.38,14.22,18.34v28.85a45.24,45.24,0,0,0,.21,5.17A11.42,11.42,0,0,0,962,121.58Z"/></svg>