<svg id="Calque_1" data-name="Calque 1" xmlns="http://www.w3.org/2000/svg" viewBox="0 0 144.59 144.59">
    <defs>
        <style>
            .cls-1{
                fill: #353535;
            }

            @media (prefers-color-scheme: dark) {
                .cls-1 {
                    fill: #ffffff;
                }
            }
        </style>
    </defs>
    <path class="cls-1" d="M72.46,8c9.86,0,18.37,3.48,26,10.62,7.49,7,11.14,15.74,11.14,26.71a34.66,34.66,0,0,1-5.75,19.88A36.23,36.23,0,0,1,89.76,78.14,38.52,38.52,0,0,1,72.3,82.33a36.68,36.68,0,0,1-17.39-4.44A38.56,38.56,0,0,1,40.62,64.7,33.44,33.44,0,0,1,35,45.5c0-11,3.69-19.73,11.29-26.78C54,11.51,62.6,8,72.46,8m0-8Q54.66,0,40.81,12.86T27,45.5a41.55,41.55,0,0,0,7,23.65A46.74,46.74,0,0,0,51.2,85a44.89,44.89,0,0,0,21.1,5.35,46.72,46.72,0,0,0,21-5,44.53,44.53,0,0,0,17.23-15.66,42.89,42.89,0,0,0,7.09-24.32q0-19.78-13.68-32.55T72.46,0Z"/>
    <path class="cls-1" d="M61.85,107.44a61.77,61.77,0,0,0,10.45.89,63.72,63.72,0,0,0,10.43-.85L72.3,127.37,61.85,107.44M45.31,93.13l27,51.46,26.76-51c-.43.23-.86.48-1.3.7a56.82,56.82,0,0,1-25.46,6.07,54.87,54.87,0,0,1-25.74-6.5c-.43-.22-.84-.47-1.25-.7Z"/>
    <path class="cls-1" d="M72.35,8c9.85,0,18.36,3.48,26,10.62,7.5,7,11.14,15.74,11.14,26.71a34.73,34.73,0,0,1-5.74,19.88A36.18,36.18,0,0,1,89.64,78.14a38.46,38.46,0,0,1-17.46,4.19A36.67,36.67,0,0,1,54.8,77.89,38.59,38.59,0,0,1,40.5,64.7a33.44,33.44,0,0,1-5.65-19.2c0-11,3.7-19.73,11.29-26.78C53.91,11.51,62.48,8,72.35,8m0-8Q54.55,0,40.7,12.86T26.85,45.5a41.56,41.56,0,0,0,7,23.65A46.79,46.79,0,0,0,51.08,85a45,45,0,0,0,21.1,5.35,46.76,46.76,0,0,0,21-5,44.53,44.53,0,0,0,17.23-15.66,42.88,42.88,0,0,0,7.08-24.32q0-19.78-13.68-32.55T72.35,0Z"/>
    <path class="cls-1" d="M61.73,107.44a61.86,61.86,0,0,0,10.45.89,63.54,63.54,0,0,0,10.43-.85L72.18,127.37,61.73,107.44M45.19,93.13l27,51.46L99,93.56c-.44.23-.86.48-1.3.7a56.86,56.86,0,0,1-25.47,6.07,54.93,54.93,0,0,1-25.74-6.5c-.42-.22-.83-.47-1.25-.7Z"/>
    <circle class="cls-1" cx="72.18" cy="45.17" r="16.15"/>
</svg>